<svg xmlns="http://www.w3.org/2000/svg" width="593" height="421" viewBox="0 0 593 421" version="1.1"><path d="M 291.500 97.972 C 278.880 100.136, 263.064 108.003, 254.880 116.187 C 245.562 125.505, 238.781 138.050, 236.961 149.340 C 236.069 154.870, 235.226 157.327, 234.098 157.681 C 226.882 159.949, 217.052 165.918, 211.956 171.126 C 205.715 177.504, 201 187.138, 201 193.511 L 201 197 250.750 197.083 L 300.500 197.166 295.500 199.522 C 292.750 200.817, 289.871 201.905, 289.103 201.939 C 288.334 201.972, 285.053 202.967, 281.812 204.149 L 275.918 206.298 276.209 259.399 L 276.500 312.500 280.084 320 C 282.678 325.429, 285.716 329.590, 291.084 335.066 C 299.404 343.553, 305.258 346.862, 313.455 347.708 L 319 348.280 319 272.652 L 319 197.024 356.250 196.762 L 393.500 196.500 393.771 176.750 L 394.042 157 382.771 156.985 C 376.572 156.976, 371.002 156.639, 370.392 156.235 C 369.783 155.831, 368.493 151.900, 367.525 147.500 C 361.305 119.223, 336.089 98.879, 305.578 97.519 C 300.585 97.297, 294.250 97.501, 291.500 97.972 M 289.988 113.976 C 282.157 115.969, 273.314 120.909, 266.750 126.957 C 263.038 130.378, 260 133.567, 260 134.044 C 260 134.521, 258.930 136.488, 257.622 138.416 C 256.314 140.343, 254.437 144.901, 253.450 148.545 C 251.426 156.023, 252.017 157.241, 257.441 156.761 C 260.020 156.532, 260.523 155.947, 261.532 152 C 263.869 142.864, 270.056 134.005, 277.894 128.573 C 283.643 124.589, 295.396 121, 302.694 121 C 313.502 121, 326.943 126.839, 334.117 134.650 C 337.918 138.788, 342.225 146.669, 343.561 151.929 C 344.689 156.375, 344.828 156.500, 348.611 156.500 C 352.467 156.500, 352.498 156.470, 352.221 152.866 C 351.918 148.915, 348.018 138.200, 345.850 135.362 C 345.107 134.391, 341.482 130.608, 337.794 126.955 C 332.556 121.768, 329.383 119.589, 323.294 116.999 C 316.314 114.030, 314.351 113.652, 304.500 113.383 C 298.450 113.218, 291.920 113.485, 289.988 113.976 M 294.703 137.381 C 288.460 139.708, 283.492 143.541, 280.120 148.633 C 276.039 154.794, 276.331 156.500, 281.465 156.500 C 284.940 156.500, 285.723 156.030, 288.119 152.500 C 294.927 142.473, 310.166 142.568, 317.124 152.680 C 319.785 156.548, 320.578 157.075, 323.337 156.807 C 327.896 156.365, 328.067 152.756, 323.793 147.176 C 317.052 138.373, 303.911 133.949, 294.703 137.381" stroke="none" fill="#07f77d" fill-rule="evenodd"/><path d="M 277 35.518 C 266.664 36.799, 264.948 37.139, 252 40.461 C 237.964 44.063, 217.188 53.891, 203.808 63.258 C 200.474 65.591, 196.792 68.169, 195.624 68.986 C 192.813 70.954, 184.944 78.182, 178.192 85 C 153.370 110.062, 136.507 143.859, 130.292 181 C 127.864 195.505, 127.870 224.498, 130.304 239.500 C 139.588 296.734, 174.257 344.682, 224.500 369.773 C 242.422 378.724, 259.220 383.528, 280.282 385.729 C 293.961 387.159, 297.825 387.208, 309.282 386.101 C 329.136 384.181, 335.155 382.861, 352 376.732 C 409.890 355.668, 451.413 304.365, 462.664 240 C 465.190 225.551, 465.202 194.639, 462.687 180.500 C 455.497 140.079, 437.819 106.748, 409.119 79.500 C 399.995 70.837, 399.970 70.815, 397.376 68.992 C 396.208 68.171, 392.526 65.591, 389.192 63.258 C 368.146 48.525, 341.853 38.582, 315.764 35.492 C 301.132 33.759, 291.139 33.766, 277 35.518 M 291.500 97.972 C 278.880 100.136, 263.064 108.003, 254.880 116.187 C 245.562 125.505, 238.781 138.050, 236.961 149.340 C 236.069 154.870, 235.226 157.327, 234.098 157.681 C 226.882 159.949, 217.052 165.918, 211.956 171.126 C 205.715 177.504, 201 187.138, 201 193.511 L 201 197 250.750 197.083 L 300.500 197.166 295.500 199.522 C 292.750 200.817, 289.871 201.905, 289.103 201.939 C 288.334 201.972, 285.053 202.967, 281.812 204.149 L 275.918 206.298 276.209 259.399 L 276.500 312.500 280.084 320 C 282.678 325.429, 285.716 329.590, 291.084 335.066 C 299.404 343.553, 305.258 346.862, 313.455 347.708 L 319 348.280 319 272.652 L 319 197.024 356.250 196.762 L 393.500 196.500 393.771 176.750 L 394.042 157 382.771 156.985 C 376.572 156.976, 371.002 156.639, 370.392 156.235 C 369.783 155.831, 368.493 151.900, 367.525 147.500 C 361.305 119.223, 336.089 98.879, 305.578 97.519 C 300.585 97.297, 294.250 97.501, 291.500 97.972 M 289.988 113.976 C 282.157 115.969, 273.314 120.909, 266.750 126.957 C 263.038 130.378, 260 133.567, 260 134.044 C 260 134.521, 258.930 136.488, 257.622 138.416 C 256.314 140.343, 254.437 144.901, 253.450 148.545 C 251.426 156.023, 252.017 157.241, 257.441 156.761 C 260.020 156.532, 260.523 155.947, 261.532 152 C 263.869 142.864, 270.056 134.005, 277.894 128.573 C 283.643 124.589, 295.396 121, 302.694 121 C 313.502 121, 326.943 126.839, 334.117 134.650 C 337.918 138.788, 342.225 146.669, 343.561 151.929 C 344.689 156.375, 344.828 156.500, 348.611 156.500 C 352.467 156.500, 352.498 156.470, 352.221 152.866 C 351.918 148.915, 348.018 138.200, 345.850 135.362 C 345.107 134.391, 341.482 130.608, 337.794 126.955 C 332.556 121.768, 329.383 119.589, 323.294 116.999 C 316.314 114.030, 314.351 113.652, 304.500 113.383 C 298.450 113.218, 291.920 113.485, 289.988 113.976 M 294.703 137.381 C 288.460 139.708, 283.492 143.541, 280.120 148.633 C 276.039 154.794, 276.331 156.500, 281.465 156.500 C 284.940 156.500, 285.723 156.030, 288.119 152.500 C 294.927 142.473, 310.166 142.568, 317.124 152.680 C 319.785 156.548, 320.578 157.075, 323.337 156.807 C 327.896 156.365, 328.067 152.756, 323.793 147.176 C 317.052 138.373, 303.911 133.949, 294.703 137.381" stroke="none" fill="#04341c" fill-rule="evenodd"/></svg>