<svg width="800" height="800" viewBox="0 0 800 800" xmlns="http://www.w3.org/2000/svg">
  <!-- Outer teal ring with C-shaped opening for handle -->
  <circle cx="400" cy="400" r="360" fill="none" stroke="#00796b" stroke-width="69"/>
  
  <!-- C-shaped opening extending to 800x800px canvas boundaries -->
  <path d="M 601 568 L 800 664 L 800 800 L 601 608 Z" fill="transparent"/>
  
  <!-- Magnifying lens with teal fill and black border -->
  <circle cx="400" cy="400" r="317" fill="#00796b" stroke="#000000" stroke-width="11"/>
  
  <!-- Mortarboard graduation cap lines -->
  <rect x="180" y="315" width="440" height="33" rx="14" fill="#ffffff"/>
  <rect x="180" y="361" width="440" height="33" rx="14" fill="#ffffff"/>
  <rect x="234" y="407" width="332" height="33" rx="14" fill="#ffffff"/>
  <rect x="209" y="452" width="383" height="33" rx="14" fill="#ffffff"/>
  
  <!-- Central graduation button -->
  <circle cx="400" cy="313" r="14" fill="#000000"/>
  
  <!-- Tassel string -->
  <rect x="393" y="328" width="14" height="82" fill="#000000"/>
  
  <!-- Tassel cap -->
  <rect x="353" y="408" width="94" height="35" rx="14" fill="#000000"/>
  
  <!-- Tassel bundle -->
  <rect x="359" y="443" width="82" height="62" rx="8" fill="#000000"/>
  
  <!-- Tassel individual strands -->
  <rect x="366" y="505" width="9" height="74" fill="#000000"/>
  <rect x="382" y="511" width="9" height="62" fill="#000000"/>
  <rect x="400" y="505" width="9" height="66" fill="#000000"/>
  <rect x="418" y="516" width="9" height="55" fill="#000000"/>
  <rect x="434" y="511" width="9" height="46" fill="#000000"/>
  
  <!-- Handle pointing to 22-minute position, ending at C-shape outer tangent -->
  <line x1="631" y1="608" x2="693" y2="664" stroke="#000000" stroke-width="60" stroke-linecap="butt"/>
  <circle cx="693" cy="664" r="30" fill="#000000"/>
</svg>